<svg xmlns="http://www.w3.org/2000/svg" version="1.1" xmlns:xlink="http://www.w3.org/1999/xlink" xmlns:svgjs="http://svgjs.dev/svgjs" width="1000" height="623" viewBox="0 0 1000 623"><g transform="matrix(1,0,0,1,-0.6060606060606233,0.2522267206477409)"><svg viewBox="0 0 396 247" data-background-color="#1b4571" preserveAspectRatio="xMidYMid meet" height="623" width="1000" xmlns="http://www.w3.org/2000/svg" xmlns:xlink="http://www.w3.org/1999/xlink"><g id="tight-bounds" transform="matrix(1,0,0,1,0.2400000000000091,-0.09999999999999432)"><svg viewBox="0 0 395.52 247.2" height="247.2" width="395.52"><g><svg></svg></g><g><svg viewBox="0 0 395.52 247.2" height="247.2" width="395.52"><g transform="matrix(1,0,0,1,39.55199999999999,71.23829017272485)"><svg viewBox="0 0 316.416 104.72341965455031" height="104.72341965455031" width="316.416"><g><svg viewBox="0 0 316.416 104.72341965455031" height="104.72341965455031" width="316.416"><g><svg viewBox="0 0 316.416 104.72341965455031" height="104.72341965455031" width="316.416"><g><svg viewBox="0 0 316.416 104.72341965455031" height="104.72341965455031" width="316.416"><g><svg viewBox="0 0 316.416 104.72341965455031" height="104.72341965455031" width="316.416"><g><svg viewBox="0 0 316.416 61.88305271783666" height="61.88305271783666" width="316.416"><g transform="matrix(1,0,0,1,0,0)"><svg width="316.416" viewBox="0.4000000059604645 -35.04999923706055 183.02999877929688 35.79999923706055" height="61.88305271783666" data-palette-color="#ffffff"><path d="M7.3 0L0.4 0 0.4-0.5 1.65-0.95Q2.65-1.35 3.2-1.93 3.75-2.5 4.1-3.55L4.1-3.55 14.4-33.1 18.65-33.1 28.8-3.35Q29.2-2.25 29.7-1.68 30.2-1.1 31.25-0.7L31.25-0.7 31.85-0.5 31.85 0 19.15 0 19.15-0.5 19.9-0.75Q20.95-1.15 21.18-1.88 21.4-2.6 21.1-3.6L21.1-3.6 18.75-10.8 7.65-10.8 5.25-3.75Q4.9-2.65 5.03-2 5.15-1.35 6.2-0.95L6.2-0.95 7.3-0.5 7.3 0ZM13.4-27.35L8-11.8 18.45-11.8 13.4-27.35ZM39.5-27.4L39.5-27.4Q37.8-27.4 36.62-28.48 35.45-29.55 35.45-31.2L35.45-31.2Q35.45-32.9 36.62-33.95 37.8-35 39.5-35L39.5-35Q41.2-35 42.35-33.95 43.5-32.9 43.5-31.2L43.5-31.2Q43.5-29.55 42.35-28.48 41.2-27.4 39.5-27.4ZM45.3 0L33.6 0 33.6-0.5 34.3-0.7Q35.3-1 35.67-1.6 36.05-2.2 36.05-3.2L36.05-3.2 36.05-18.85Q36.05-19.9 35.67-20.43 35.3-20.95 34.3-21.15L34.3-21.15 33.6-21.3 33.6-21.8 42.75-24.75 43.25-24.25 43.1-17.15 43.1-3.15Q43.1-2.15 43.47-1.55 43.85-0.95 44.8-0.65L44.8-0.65 45.3-0.5 45.3 0ZM60.45 0L47.5 0 47.5-0.5 48.25-0.7Q49.25-1 49.62-1.6 50-2.2 50-3.15L50-3.15 50-18.8Q50-19.9 49.62-20.43 49.25-20.95 48.25-21.15L48.25-21.15 47.5-21.35 47.5-21.85 56.1-24.75 56.6-24.25 57.05-19.95 57.05-19.55Q57.75-20.95 58.87-22.13 60-23.3 61.37-24.05 62.75-24.8 64.09-24.8L64.09-24.8Q66-24.8 67-23.75 68-22.7 68-21.1L68-21.1Q68-19.4 67.02-18.48 66.05-17.55 64.7-17.55L64.7-17.55Q62.6-17.55 61-19.65L61-19.65 60.9-19.75Q60.4-20.45 59.75-20.53 59.1-20.6 58.55-19.9L58.55-19.9Q58.05-19.45 57.72-18.82 57.4-18.2 57.1-17.4L57.1-17.4 57.1-3.45Q57.1-1.45 58.85-0.95L58.85-0.95 60.45-0.5 60.45 0ZM81.64 0L69.69 0 69.69-0.5 70.29-0.7Q72.09-1.3 72.09-3.2L72.09-3.2 72.09-29.95Q72.09-30.95 71.69-31.48 71.29-32 70.29-32.25L70.29-32.25 69.64-32.4 69.64-32.9 78.79-35.05 79.39-34.6 79.19-27.6 79.19-10.5Q79.19-8.65 79.22-6.83 79.24-5 79.24-3.2L79.24-3.2Q79.24-2.2 79.64-1.58 80.04-0.95 80.99-0.65L80.99-0.65 81.64-0.5 81.64 0ZM95.94 0L83.99 0 83.99-0.5 84.59-0.7Q86.39-1.3 86.39-3.2L86.39-3.2 86.39-29.95Q86.39-30.95 85.99-31.48 85.59-32 84.59-32.25L84.59-32.25 83.94-32.4 83.94-32.9 93.09-35.05 93.69-34.6 93.49-27.6 93.49-10.5Q93.49-8.65 93.52-6.83 93.54-5 93.54-3.2L93.54-3.2Q93.54-2.2 93.94-1.58 94.34-0.95 95.29-0.65L95.29-0.65 95.94-0.5 95.94 0ZM104.14-27.4L104.14-27.4Q102.44-27.4 101.26-28.48 100.09-29.55 100.09-31.2L100.09-31.2Q100.09-32.9 101.26-33.95 102.44-35 104.14-35L104.14-35Q105.84-35 106.99-33.95 108.14-32.9 108.14-31.2L108.14-31.2Q108.14-29.55 106.99-28.48 105.84-27.4 104.14-27.4ZM109.94 0L98.24 0 98.24-0.5 98.94-0.7Q99.94-1 100.31-1.6 100.69-2.2 100.69-3.2L100.69-3.2 100.69-18.85Q100.69-19.9 100.31-20.43 99.94-20.95 98.94-21.15L98.94-21.15 98.24-21.3 98.24-21.8 107.39-24.75 107.89-24.25 107.74-17.15 107.74-3.15Q107.74-2.15 108.11-1.55 108.49-0.95 109.44-0.65L109.44-0.65 109.94-0.5 109.94 0ZM119.44 0.75L119.44 0.75Q116.54 0.75 114.56-0.9 112.59-2.55 112.59-5.65L112.59-5.65Q112.59-8 114.98-9.98 117.39-11.95 122.54-12.95L122.54-12.95Q123.34-13.1 124.34-13.28 125.34-13.45 126.44-13.65L126.44-13.65 126.44-17.6Q126.44-21 125.61-22.38 124.79-23.75 123.04-23.75L123.04-23.75Q121.84-23.75 121.14-22.98 120.44-22.2 120.23-20.3L120.23-20.3 120.14-19.75Q120.04-17.6 119.09-16.6 118.14-15.6 116.73-15.6L116.73-15.6Q115.44-15.6 114.59-16.4 113.73-17.2 113.73-18.55L113.73-18.55Q113.73-20.6 115.16-22 116.59-23.4 118.94-24.1 121.29-24.8 124.04-24.8L124.04-24.8Q128.49-24.8 130.91-22.63 133.34-20.45 133.34-15.55L133.34-15.55 133.34-4.5Q133.34-2.25 135.44-2.25L135.44-2.25 136.53-2.25 136.99-1.85Q136.03-0.65 134.91 0 133.78 0.65 131.74 0.65L131.74 0.65Q129.53 0.65 128.26-0.38 126.99-1.4 126.59-3.1L126.59-3.1Q125.09-1.5 123.51-0.38 121.94 0.75 119.44 0.75ZM122.49-2.3L122.49-2.3Q123.49-2.3 124.36-2.78 125.24-3.25 126.44-4.25L126.44-4.25 126.44-12.65Q125.94-12.55 125.44-12.45 124.94-12.35 124.29-12.25L124.29-12.25Q121.99-11.65 120.61-10.23 119.23-8.8 119.23-6.4L119.23-6.4Q119.23-4.35 120.19-3.33 121.14-2.3 122.49-2.3ZM149.78 0L138.03 0 138.03-0.5 138.73-0.7Q140.48-1.2 140.48-3.15L140.48-3.15 140.48-18.8Q140.48-19.9 140.13-20.43 139.78-20.95 138.78-21.15L138.78-21.15 138.03-21.35 138.03-21.85 146.58-24.75 147.08-24.25 147.48-21.25Q149.23-22.8 151.43-23.8 153.63-24.8 155.78-24.8L155.78-24.8Q159.08-24.8 160.86-23 162.63-21.2 162.63-17.5L162.63-17.5 162.63-3.1Q162.63-1.15 164.53-0.65L164.53-0.65 164.98-0.5 164.98 0 153.18 0 153.18-0.5 153.83-0.7Q155.58-1.25 155.58-3.15L155.58-3.15 155.58-19.1Q155.58-22.3 152.38-22.3L152.38-22.3Q150.18-22.3 147.58-20.1L147.58-20.1 147.58-3.1Q147.58-1.15 149.33-0.65L149.33-0.65 149.78-0.5 149.78 0ZM176.43 0.75L176.43 0.75Q173.23 0.75 171.46-0.85 169.68-2.45 169.68-5.95L169.68-5.95 169.68-23.05 166.23-23.05 166.23-23.55 167.43-23.75Q168.98-24.1 170.11-24.75 171.23-25.4 172.33-26.5L172.33-26.5 176.43-31.05 176.93-31.05 176.78-24.05 182.38-24.05 182.38-23.05 176.73-23.05 176.73-5.05Q176.73-3.3 177.5-2.4 178.28-1.5 179.48-1.5L179.48-1.5Q180.53-1.5 181.33-2.02 182.13-2.55 182.93-3.45L182.93-3.45 183.43-2.95Q182.43-1.25 180.68-0.25 178.93 0.75 176.43 0.75Z" opacity="1" transform="matrix(1,0,0,1,0,0)" fill="#ffffff" class="undefined-text-0" data-fill-palette-color="primary" id="text-0"></path></svg></g></svg></g><g transform="matrix(1,0,0,1,0,76.49215627125267)"><svg viewBox="0 0 316.416 28.231263383297637" height="28.231263383297637" width="316.416"><g transform="matrix(1,0,0,1,0,0)"><svg width="316.416" viewBox="0.45000001788139343 -37.5 560.3300170898438 50" height="28.231263383297637" data-palette-color="#ffffff"><path d="M25.55-31.5L25.55-31.5Q24.2-31.5 22.58-31.73 20.95-31.95 18.55-32.45L18.55-32.45 16.45-22.5 23.75-22.5 22.95-18.8 15.65-18.8 11.6 0 4.4 0 11.6-33.4Q8.15-33.25 6.63-30.75 5.1-28.25 5.1-23.05L5.1-23.05Q5.1-22.1 5.23-21.4 5.35-20.7 5.65-20.05L5.65-20.05Q5.75-19.85 5.78-19.78 5.8-19.7 5.8-19.65L5.8-19.65Q3-19.65 1.73-20.83 0.45-22 0.45-24.5L0.45-24.5Q0.45-30.45 4.93-33.98 9.4-37.5 17.5-37.5L17.5-37.5Q17.95-37.5 18.6-37.45 19.25-37.4 20.75-37.25L20.75-37.25Q22.75-37.05 23.83-36.98 24.9-36.9 25.8-36.9L25.8-36.9Q27.15-36.9 28.25-37.05 29.35-37.2 30.3-37.5L30.3-37.5Q30.25-37.4 29.85-35.95 29.45-34.5 28.9-33.65L28.9-33.65Q28.35-32.8 27.53-32.27 26.7-31.75 25.55-31.5ZM22.55-5.7L22.55-5.7Q22.55-6.35 22.65-7.18 22.75-8 22.95-8.95L22.95-8.95 28.3-34 35.7-35 29.95-8Q29.85-7.55 29.8-7.18 29.75-6.8 29.75-6.4L29.75-6.4Q29.75-5.4 30.22-4.98 30.7-4.55 31.8-4.55L31.8-4.55Q33.2-4.55 34.45-5.78 35.7-7 36.3-8.95L36.3-8.95 38.4-8.95Q36.8-4.4 34.1-2.05 31.4 0.3 27.9 0.3L27.9 0.3Q25.4 0.3 23.97-1.28 22.55-2.85 22.55-5.7ZM48.4-31.65L48.4-31.65Q48.4-30 47.22-28.85 46.05-27.7 44.4-27.7L44.4-27.7Q42.75-27.7 41.59-28.85 40.45-30 40.45-31.65L40.45-31.65Q40.45-33.3 41.59-34.48 42.75-35.65 44.4-35.65L44.4-35.65Q46.05-35.65 47.22-34.48 48.4-33.3 48.4-31.65ZM35.65-5.7L35.65-5.7Q35.65-6.35 35.75-7.18 35.84-8 36.05-8.95L36.05-8.95 39.45-25 46.65-25 43.05-8Q42.95-7.55 42.9-7.18 42.84-6.8 42.84-6.4L42.84-6.4Q42.84-5.4 43.32-4.98 43.8-4.55 44.9-4.55L44.9-4.55Q46.3-4.55 47.55-5.78 48.8-7 49.4-8.95L49.4-8.95 51.5-8.95Q49.9-4.4 47.2-2.05 44.5 0.3 41 0.3L41 0.3Q38.5 0.3 37.07-1.28 35.65-2.85 35.65-5.7ZM65.64-22.7L65.64-22.7 65.64-22.4 66.19-25 73.39-25 68.44-1.8Q70.94-2.7 72.37-4.33 73.79-5.95 74.74-8.95L74.74-8.95 76.84-8.95Q75.69-5.15 73.57-2.85 71.44-0.55 67.99 0.4L67.99 0.4 67.24 4Q66.34 8.2 64.09 10.35 61.84 12.5 58.24 12.5L58.24 12.5Q55.69 12.5 54.17 11.2 52.64 9.9 52.64 7.65L52.64 7.65Q52.64 5.2 54.67 3.33 56.69 1.45 60.79 0.2L60.79 0.2 61.39-2.45Q60.09-1.1 58.59-0.4 57.09 0.3 55.39 0.3L55.39 0.3Q52.29 0.3 50.52-1.8 48.74-3.9 48.74-7.75L48.74-7.75Q48.74-10.55 49.59-13.6 50.44-16.65 51.94-19.15L51.94-19.15Q53.79-22.1 56.24-23.68 58.69-25.25 61.59-25.25L61.59-25.25Q63.54-25.25 64.59-24.58 65.64-23.9 65.64-22.7ZM62.64-8.45L65.19-20.3Q65.14-21.1 64.59-21.63 64.04-22.15 63.14-22.15L63.14-22.15Q60.39-22.15 58.27-17.55 56.14-12.95 56.14-8.45L56.14-8.45Q56.14-6.5 56.69-5.53 57.24-4.55 58.64-4.55L58.64-4.55Q59.84-4.55 61.02-5.65 62.19-6.75 62.64-8.45L62.64-8.45ZM59.99 4.15L60.29 2.7Q57.79 3.65 56.59 4.67 55.39 5.7 55.39 6.95L55.39 6.95Q55.39 7.6 55.89 8.1 56.39 8.6 57.09 8.6L57.09 8.6Q57.94 8.6 58.74 7.4 59.54 6.2 59.99 4.15L59.99 4.15ZM86.89-5.35L86.89-5.35Q86.89-6.25 87.12-7.6 87.34-8.95 88.04-11.9L88.04-11.9Q88.74-14.75 88.94-16 89.14-17.25 89.14-18.1L89.14-18.1Q89.14-19.35 88.67-20 88.19-20.65 87.29-20.65L87.29-20.65Q86.09-20.65 84.97-19.23 83.84-17.8 83.49-16.25L83.49-16.25 80.04 0 72.84 0 80.09-34 87.49-35 84.79-22.4Q86.04-23.8 87.49-24.5 88.94-25.2 90.64-25.2L90.64-25.2Q93.29-25.2 94.74-23.75 96.19-22.3 96.19-19.55L96.19-19.55Q96.19-18.4 95.92-16.82 95.64-15.25 94.84-12L94.84-12Q94.19-9.45 93.99-8.4 93.79-7.35 93.79-6.65L93.79-6.65Q93.79-5.6 94.29-5.08 94.79-4.55 95.79-4.55L95.79-4.55Q97.04-4.55 97.94-5.4 98.84-6.25 99.99-8.95L99.99-8.95 102.09-8.95Q100.49-4.3 98.22-2 95.94 0.3 92.79 0.3L92.79 0.3Q89.99 0.3 88.44-1.23 86.89-2.75 86.89-5.35ZM101.34-23L101.74-25 103.39-25 104.89-31.9 112.29-32.9 110.59-25 113.59-25 113.19-23 110.19-23 106.99-8Q106.89-7.55 106.84-7.18 106.79-6.8 106.79-6.4L106.79-6.4Q106.79-5.4 107.26-4.98 107.74-4.55 108.84-4.55L108.84-4.55Q110.24-4.55 111.49-5.78 112.74-7 113.34-8.95L113.34-8.95 115.44-8.95Q113.84-4.4 111.14-2.05 108.44 0.3 104.94 0.3L104.94 0.3Q102.44 0.3 101.01-1.28 99.59-2.85 99.59-5.7L99.59-5.7Q99.59-6.35 99.69-7.18 99.79-8 99.99-8.95L99.99-8.95 102.99-23 101.34-23ZM125.53-23L125.93-25 127.58-25 129.08-31.9 136.48-32.9 134.78-25 137.78-25 137.38-23 134.38-23 131.18-8Q131.08-7.55 131.03-7.18 130.98-6.8 130.98-6.4L130.98-6.4Q130.98-5.4 131.46-4.98 131.93-4.55 133.03-4.55L133.03-4.55Q134.43-4.55 135.68-5.78 136.93-7 137.53-8.95L137.53-8.95 139.63-8.95Q138.03-4.4 135.33-2.05 132.63 0.3 129.13 0.3L129.13 0.3Q126.63 0.3 125.21-1.28 123.78-2.85 123.78-5.7L123.78-5.7Q123.78-6.35 123.88-7.18 123.98-8 124.18-8.95L124.18-8.95 127.18-23 125.53-23ZM149.88-31.65L149.88-31.65Q149.88-30 148.71-28.85 147.53-27.7 145.88-27.7L145.88-27.7Q144.23-27.7 143.08-28.85 141.93-30 141.93-31.65L141.93-31.65Q141.93-33.3 143.08-34.48 144.23-35.65 145.88-35.65L145.88-35.65Q147.53-35.65 148.71-34.48 149.88-33.3 149.88-31.65ZM137.13-5.7L137.13-5.7Q137.13-6.35 137.23-7.18 137.33-8 137.53-8.95L137.53-8.95 140.93-25 148.13-25 144.53-8Q144.43-7.55 144.38-7.18 144.33-6.8 144.33-6.4L144.33-6.4Q144.33-5.4 144.81-4.98 145.28-4.55 146.38-4.55L146.38-4.55Q147.78-4.55 149.03-5.78 150.28-7 150.88-8.95L150.88-8.95 152.98-8.95Q151.38-4.4 148.68-2.05 145.98 0.3 142.48 0.3L142.48 0.3Q139.98 0.3 138.56-1.28 137.13-2.85 137.13-5.7ZM167.93-20.85L167.93-20.85Q167.93-19.15 167.2-18.18 166.48-17.2 165.28-17.2L165.28-17.2Q164.88-17.2 164.43-17.35 163.98-17.5 163.53-17.8L163.53-17.8Q163.83-18.6 163.98-19.35 164.13-20.1 164.13-20.75L164.13-20.75Q164.13-21.75 163.78-22.28 163.43-22.8 162.73-22.8L162.73-22.8Q160.53-22.8 158.43-17.73 156.33-12.65 156.33-8.1L156.33-8.1Q156.33-5.8 157.1-4.85 157.88-3.9 159.93-3.9L159.93-3.9Q162.28-3.9 164.25-4.98 166.23-6.05 168.78-8.95L168.78-8.95 170.48-8.95Q167.58-4.25 164.18-1.98 160.78 0.3 156.73 0.3L156.73 0.3Q152.88 0.3 150.9-1.7 148.93-3.7 148.93-7.65L148.93-7.65Q148.93-10.5 149.8-13.7 150.68-16.9 152.23-19.4L152.23-19.4Q154.08-22.4 156.65-23.93 159.23-25.45 162.38-25.45L162.38-25.45Q165.13-25.45 166.53-24.28 167.93-23.1 167.93-20.85ZM174.12-34L181.52-35 177.77-17.4 187.42-25 192.37-25 182.37-18.05Q183.07-18.15 183.4-18.2 183.72-18.25 184.02-18.25L184.02-18.25Q186.57-18.25 188.05-16.65 189.52-15.05 189.52-12.4L189.52-12.4Q189.52-11.9 189.47-11.43 189.42-10.95 189.32-10.5L189.32-10.5 188.77-8Q188.67-7.4 188.6-7 188.52-6.6 188.52-6.4L188.52-6.4Q188.52-5.45 189-5 189.47-4.55 190.47-4.55L190.47-4.55Q191.72-4.55 192.62-5.4 193.52-6.25 194.67-8.95L194.67-8.95 196.77-8.95Q195.22-4.35 192.92-2.02 190.62 0.3 187.57 0.3L187.57 0.3Q184.52 0.3 182.9-1.18 181.27-2.65 181.27-5.4L181.27-5.4Q181.27-6 181.35-6.65 181.42-7.3 181.57-8L181.57-8 181.97-9.95Q182.07-10.4 182.12-10.85 182.17-11.3 182.17-11.8L182.17-11.8Q182.17-13 181.72-13.6 181.27-14.2 180.37-14.2L180.37-14.2Q179.62-14.2 178.75-13.78 177.87-13.35 176.67-12.35L176.67-12.35 174.07 0 166.87 0 174.12-34ZM213.02-20.65L213.02-20.65Q213.02-16.5 209.62-13.43 206.22-10.35 201.52-10.1L201.52-10.1Q201.47-9.25 201.45-8.83 201.42-8.4 201.42-8.1L201.42-8.1Q201.42-5.8 202.2-4.85 202.97-3.9 205.02-3.9L205.02-3.9Q207.37-3.9 209.35-4.98 211.32-6.05 213.87-8.95L213.87-8.95 215.57-8.95Q212.67-4.25 209.27-1.98 205.87 0.3 201.82 0.3L201.82 0.3Q197.97 0.3 196-1.7 194.02-3.7 194.02-7.65L194.02-7.65Q194.02-10.5 194.92-13.7 195.82-16.9 197.32-19.4L197.32-19.4Q199.17-22.4 201.75-23.93 204.32-25.45 207.52-25.45L207.52-25.45Q210.27-25.45 211.65-24.28 213.02-23.1 213.02-20.65ZM207.92-22.8L207.92-22.8Q206.22-22.8 204.5-19.78 202.77-16.75 201.92-12.5L201.92-12.5Q204.82-12.7 207-15.18 209.17-17.65 209.17-20.75L209.17-20.75Q209.17-21.8 208.87-22.3 208.57-22.8 207.92-22.8ZM215.27-23L215.67-25 217.32-25 218.82-31.9 226.22-32.9 224.52-25 227.52-25 227.12-23 224.12-23 220.92-8Q220.82-7.55 220.77-7.18 220.72-6.8 220.72-6.4L220.72-6.4Q220.72-5.4 221.2-4.98 221.67-4.55 222.77-4.55L222.77-4.55Q224.17-4.55 225.42-5.78 226.67-7 227.27-8.95L227.27-8.95 229.37-8.95Q227.77-4.4 225.07-2.05 222.37 0.3 218.87 0.3L218.87 0.3Q216.37 0.3 214.95-1.28 213.52-2.85 213.52-5.7L213.52-5.7Q213.52-6.35 213.62-7.18 213.72-8 213.92-8.95L213.92-8.95 216.92-23 215.27-23ZM242.97-8.35L242.97-8.35Q242.97-7.75 242.92-7.3 242.87-6.85 242.77-6.45L242.77-6.45Q243.77-7.05 244.72-7.7 245.67-8.35 246.37-8.95L246.37-8.95 248.47-8.95Q246.92-7.15 245.04-5.63 243.17-4.1 240.82-2.7L240.82-2.7Q239.47-1.25 237.37-0.48 235.27 0.3 232.97 0.3L232.97 0.3Q229.62 0.3 227.64-1.53 225.67-3.35 225.67-6.1L225.67-6.1Q225.67-7.65 226.42-8.93 227.17-10.2 228.32-10.75L228.32-10.75Q230.02-13.8 231.49-17.28 232.97-20.75 234.47-25.55L234.47-25.55 241.87-26.55Q242.02-22.8 242.22-19.7 242.42-16.6 242.72-12.95L242.72-12.95Q242.87-10.85 242.92-10 242.97-9.15 242.97-8.35ZM234.77-20.15L234.77-20.15Q234.12-18.1 233.19-15.88 232.27-13.65 230.72-10.7L230.72-10.7Q231.27-10.45 231.57-10 231.87-9.55 231.87-8.95L231.87-8.95Q231.87-8 231.22-7.25 230.57-6.5 229.67-6.5L229.67-6.5Q229.17-6.5 228.82-6.68 228.47-6.85 228.32-7.15L228.32-7.15Q228.32-5.3 229.04-4.48 229.77-3.65 231.37-3.65L231.37-3.65Q233.42-3.65 234.57-4.85 235.72-6.05 235.72-8.3L235.72-8.3Q235.72-9 235.67-9.73 235.62-10.45 235.47-12.15L235.47-12.15Q235.22-14.5 235.07-16.3 234.92-18.1 234.77-20.15ZM272.91-8.35L272.91-8.35Q272.91-7.75 272.86-7.3 272.81-6.85 272.71-6.45L272.71-6.45Q273.71-7.05 274.66-7.7 275.61-8.35 276.31-8.95L276.31-8.95 278.41-8.95Q276.86-7.15 274.99-5.63 273.11-4.1 270.76-2.7L270.76-2.7Q269.41-1.25 267.31-0.48 265.21 0.3 262.91 0.3L262.91 0.3Q259.56 0.3 257.59-1.53 255.61-3.35 255.61-6.1L255.61-6.1Q255.61-7.65 256.36-8.93 257.11-10.2 258.26-10.75L258.26-10.75Q259.96-13.8 261.44-17.28 262.91-20.75 264.41-25.55L264.41-25.55 271.81-26.55Q271.96-22.8 272.16-19.7 272.36-16.6 272.66-12.95L272.66-12.95Q272.81-10.85 272.86-10 272.91-9.15 272.91-8.35ZM264.71-20.15L264.71-20.15Q264.06-18.1 263.14-15.88 262.21-13.65 260.66-10.7L260.66-10.7Q261.21-10.45 261.51-10 261.81-9.55 261.81-8.95L261.81-8.95Q261.81-8 261.16-7.25 260.51-6.5 259.61-6.5L259.61-6.5Q259.11-6.5 258.76-6.68 258.41-6.85 258.26-7.15L258.26-7.15Q258.26-5.3 258.99-4.48 259.71-3.65 261.31-3.65L261.31-3.65Q263.36-3.65 264.51-4.85 265.66-6.05 265.66-8.3L265.66-8.3Q265.66-9 265.61-9.73 265.56-10.45 265.41-12.15L265.41-12.15Q265.16-14.5 265.01-16.3 264.86-18.1 264.71-20.15ZM288.66-31.65L288.66-31.65Q288.66-30 287.49-28.85 286.31-27.7 284.66-27.7L284.66-27.7Q283.01-27.7 281.86-28.85 280.71-30 280.71-31.65L280.71-31.65Q280.71-33.3 281.86-34.48 283.01-35.65 284.66-35.65L284.66-35.65Q286.31-35.65 287.49-34.48 288.66-33.3 288.66-31.65ZM275.91-5.7L275.91-5.7Q275.91-6.35 276.01-7.18 276.11-8 276.31-8.95L276.31-8.95 279.71-25 286.91-25 283.31-8Q283.21-7.55 283.16-7.18 283.11-6.8 283.11-6.4L283.11-6.4Q283.11-5.4 283.59-4.98 284.06-4.55 285.16-4.55L285.16-4.55Q286.56-4.55 287.81-5.78 289.06-7 289.66-8.95L289.66-8.95 291.76-8.95Q290.16-4.4 287.46-2.05 284.76 0.3 281.26 0.3L281.26 0.3Q278.76 0.3 277.34-1.28 275.91-2.85 275.91-5.7ZM314.16-5.35L314.16-5.35Q314.16-6.25 314.38-7.6 314.61-8.95 315.31-11.9L315.31-11.9Q316.01-14.75 316.21-16 316.41-17.25 316.41-18.1L316.41-18.1Q316.41-19.35 315.96-20 315.51-20.65 314.61-20.65L314.61-20.65Q313.41-20.65 312.38-19.43 311.36-18.2 310.71-16.05L310.71-16.05 307.31 0 300.11 0 303.76-17.25Q303.86-17.55 303.88-17.85 303.91-18.15 303.91-18.5L303.91-18.5Q303.91-19.5 303.51-20.1 303.11-20.7 302.41-20.7L302.41-20.7Q301.11-20.7 300.06-19.48 299.01-18.25 298.36-16.05L298.36-16.05 294.96 0 287.76 0 293.06-25 300.26-25 299.71-22.4Q300.96-23.85 302.46-24.55 303.96-25.25 305.81-25.25L305.81-25.25Q308.01-25.25 309.28-24.18 310.56-23.1 310.96-20.95L310.96-20.95Q312.36-23.1 314.06-24.15 315.76-25.2 317.91-25.2L317.91-25.2Q320.56-25.2 322.01-23.75 323.46-22.3 323.46-19.55L323.46-19.55Q323.46-18.4 323.18-16.82 322.91-15.25 322.11-12L322.11-12Q321.46-9.45 321.26-8.4 321.06-7.35 321.06-6.65L321.06-6.65Q321.06-5.6 321.56-5.08 322.06-4.55 323.06-4.55L323.06-4.55Q324.31-4.55 325.21-5.4 326.11-6.25 327.26-8.95L327.26-8.95 329.36-8.95Q327.76-4.3 325.48-2 323.21 0.3 320.06 0.3L320.06 0.3Q317.26 0.3 315.71-1.23 314.16-2.75 314.16-5.35ZM336.61-19.2L333.66-5.2Q333.86-4.65 334.36-4.35 334.86-4.05 335.56-4.05L335.56-4.05Q338.71-4.05 340.63-8.1 342.56-12.15 342.56-17.5L342.56-17.5Q342.56-19.55 341.96-20.6 341.36-21.65 340.06-21.65L340.06-21.65Q339.16-21.65 338.21-20.98 337.26-20.3 336.61-19.2L336.61-19.2ZM332.86-1.5L330.26 10.7 322.71 12.5 331.06-26.85 338.26-26.85 337.46-23.1Q338.71-24.15 340.16-24.7 341.61-25.25 343.31-25.25L343.31-25.25Q346.31-25.25 347.86-23.25 349.41-21.25 349.41-17.35L349.41-17.35Q349.41-9.7 346.13-4.7 342.86 0.3 337.11 0.3L337.11 0.3Q335.51 0.3 334.43-0.15 333.36-0.6 332.86-1.5L332.86-1.5ZM350.25-5.7L350.25-5.7Q350.25-6.35 350.35-7.18 350.45-8 350.65-8.95L350.65-8.95 356-34 363.4-35 357.65-8Q357.55-7.55 357.5-7.18 357.45-6.8 357.45-6.4L357.45-6.4Q357.45-5.4 357.93-4.98 358.4-4.55 359.5-4.55L359.5-4.55Q360.9-4.55 362.15-5.78 363.4-7 364-8.95L364-8.95 366.1-8.95Q364.5-4.4 361.8-2.05 359.1 0.3 355.6 0.3L355.6 0.3Q353.1 0.3 351.68-1.28 350.25-2.85 350.25-5.7ZM372.35-4.55L372.35-4.55Q373.6-4.55 374.6-5.6 375.6-6.65 376.25-8.65L376.25-8.65 379.75-25 386.95-25 382-1.8Q384.5-2.7 385.93-4.33 387.35-5.95 388.3-8.95L388.3-8.95 390.4-8.95Q389.25-5.15 387.13-2.85 385-0.55 381.55 0.4L381.55 0.4 380.8 4Q379.9 8.2 377.65 10.35 375.4 12.5 371.8 12.5L371.8 12.5Q369.25 12.5 367.73 11.2 366.2 9.9 366.2 7.65L366.2 7.65Q366.2 5.2 368.23 3.33 370.25 1.45 374.35 0.2L374.35 0.2 374.95-2.5Q373.7-1.1 372.23-0.4 370.75 0.3 368.95 0.3L368.95 0.3Q366.45 0.3 365.03-1.28 363.6-2.85 363.6-5.7L363.6-5.7Q363.6-6.35 363.7-7.18 363.8-8 364-8.95L364-8.95 367.4-25 374.6-25 371-8Q370.95-7.7 370.9-7.38 370.85-7.05 370.85-6.75L370.85-6.75Q370.85-5.7 371.23-5.13 371.6-4.55 372.35-4.55ZM373.55 4.15L373.85 2.7Q371.35 3.65 370.15 4.67 368.95 5.7 368.95 6.95L368.95 6.95Q368.95 7.6 369.45 8.1 369.95 8.6 370.65 8.6L370.65 8.6Q371.5 8.6 372.3 7.4 373.1 6.2 373.55 4.15L373.55 4.15ZM405.8 0.3L405.8 0.3Q402.45 0.3 400.62-1.38 398.8-3.05 398.8-6.1L398.8-6.1Q398.8-6.8 398.9-7.5 399-8.2 399.15-8.95L399.15-8.95 404.5-34 411.9-35 409.5-23.75Q410.7-24.5 411.62-24.83 412.55-25.15 413.6-25.15L413.6-25.15Q416.55-25.15 418.02-23.03 419.5-20.9 419.5-16.6L419.5-16.6Q419.5-13.65 418.6-10.55 417.7-7.45 416.1-5.15L416.1-5.15Q414.25-2.45 411.65-1.07 409.05 0.3 405.8 0.3ZM405.95-6.85L405.95-6.85Q405.95-5.7 406.62-5.13 407.3-4.55 408.6-4.55L408.6-4.55Q410.85-4.55 412.65-8.5 414.45-12.45 414.45-16.8L414.45-16.8Q414.45-18.9 413.72-20.25 413-21.6 411.8-21.6L411.8-21.6Q411-21.6 410.1-21.35 409.2-21.1 408.85-20.7L408.85-20.7 406.1-8Q406.05-7.7 406-7.4 405.95-7.1 405.95-6.85ZM430.64-19L426.64 0 419.44 0 424.74-25 431.94-25 431.29-21.9Q433.49-23.75 434.77-24.38 436.04-25 437.34-25L437.34-25Q438.89-25 439.84-23.93 440.79-22.85 440.79-21.25L440.79-21.25Q440.79-19.7 439.79-18.65 438.79-17.6 437.19-17.6L437.19-17.6Q436.34-17.6 435.87-18 435.39-18.4 435.19-19.65L435.19-19.65Q435.04-20.45 434.84-20.68 434.64-20.9 434.29-20.9L434.29-20.9Q433.44-20.9 432.69-20.55 431.94-20.2 430.64-19L430.64-19ZM452.99-31.65L452.99-31.65Q452.99-30 451.82-28.85 450.64-27.7 448.99-27.7L448.99-27.7Q447.34-27.7 446.19-28.85 445.04-30 445.04-31.65L445.04-31.65Q445.04-33.3 446.19-34.48 447.34-35.65 448.99-35.65L448.99-35.65Q450.64-35.65 451.82-34.48 452.99-33.3 452.99-31.65ZM440.24-5.7L440.24-5.7Q440.24-6.35 440.34-7.18 440.44-8 440.64-8.95L440.64-8.95 444.04-25 451.24-25 447.64-8Q447.54-7.55 447.49-7.18 447.44-6.8 447.44-6.4L447.44-6.4Q447.44-5.4 447.92-4.98 448.39-4.55 449.49-4.55L449.49-4.55Q450.89-4.55 452.14-5.78 453.39-7 453.99-8.95L453.99-8.95 456.09-8.95Q454.49-4.4 451.79-2.05 449.09 0.3 445.59 0.3L445.59 0.3Q443.09 0.3 441.67-1.28 440.24-2.85 440.24-5.7ZM453.59-5.7L453.59-5.7Q453.59-6.35 453.69-7.18 453.79-8 453.99-8.95L453.99-8.95 459.34-34 466.74-35 460.99-8Q460.89-7.55 460.84-7.18 460.79-6.8 460.79-6.4L460.79-6.4Q460.79-5.4 461.26-4.98 461.74-4.55 462.84-4.55L462.84-4.55Q464.24-4.55 465.49-5.78 466.74-7 467.34-8.95L467.34-8.95 469.44-8.95Q467.84-4.4 465.14-2.05 462.44 0.3 458.94 0.3L458.94 0.3Q456.44 0.3 455.01-1.28 453.59-2.85 453.59-5.7ZM466.94-5.7L466.94-5.7Q466.94-6.35 467.04-7.18 467.14-8 467.34-8.95L467.34-8.95 472.69-34 480.09-35 474.34-8Q474.24-7.55 474.19-7.18 474.14-6.8 474.14-6.4L474.14-6.4Q474.14-5.4 474.61-4.98 475.09-4.55 476.19-4.55L476.19-4.55Q477.59-4.55 478.84-5.78 480.09-7 480.69-8.95L480.69-8.95 482.79-8.95Q481.19-4.4 478.49-2.05 475.79 0.3 472.29 0.3L472.29 0.3Q469.79 0.3 468.36-1.28 466.94-2.85 466.94-5.7ZM492.78-31.65L492.78-31.65Q492.78-30 491.61-28.85 490.43-27.7 488.78-27.7L488.78-27.7Q487.13-27.7 485.98-28.85 484.83-30 484.83-31.65L484.83-31.65Q484.83-33.3 485.98-34.48 487.13-35.65 488.78-35.65L488.78-35.65Q490.43-35.65 491.61-34.48 492.78-33.3 492.78-31.65ZM480.03-5.7L480.03-5.7Q480.03-6.35 480.13-7.18 480.23-8 480.43-8.95L480.43-8.95 483.83-25 491.03-25 487.43-8Q487.33-7.55 487.28-7.18 487.23-6.8 487.23-6.4L487.23-6.4Q487.23-5.4 487.71-4.98 488.18-4.55 489.28-4.55L489.28-4.55Q490.68-4.55 491.93-5.78 493.18-7 493.78-8.95L493.78-8.95 495.88-8.95Q494.28-4.4 491.58-2.05 488.88 0.3 485.38 0.3L485.38 0.3Q482.88 0.3 481.46-1.28 480.03-2.85 480.03-5.7ZM510.03-22.7L510.03-22.7 510.03-22.35 510.58-25 517.78-25 514.18-8Q514.08-7.55 514.03-7.18 513.98-6.8 513.98-6.4L513.98-6.4Q513.98-5.3 514.48-4.78 514.98-4.25 516.03-4.25L516.03-4.25Q517.33-4.25 518.38-5.48 519.43-6.7 520.08-8.95L520.08-8.95 522.18-8.95Q520.58-4.35 518.03-2.02 515.48 0.3 512.13 0.3L512.13 0.3Q509.98 0.3 508.71-0.9 507.43-2.1 507.23-4.3L507.23-4.3Q505.68-2 503.81-0.85 501.93 0.3 499.78 0.3L499.78 0.3Q496.68 0.3 494.91-1.8 493.13-3.9 493.13-7.75L493.13-7.75Q493.13-10.55 493.98-13.6 494.83-16.65 496.33-19.15L496.33-19.15Q498.18-22.1 500.63-23.68 503.08-25.25 505.98-25.25L505.98-25.25Q507.93-25.25 508.98-24.58 510.03-23.9 510.03-22.7ZM507.18-8.95L509.58-20.25Q509.58-21 509.03-21.58 508.48-22.15 507.53-22.15L507.53-22.15Q504.78-22.15 502.66-17.55 500.53-12.95 500.53-8.45L500.53-8.45Q500.53-6.5 501.08-5.53 501.63-4.55 503.03-4.55L503.03-4.55Q504.33-4.55 505.56-5.8 506.78-7.05 507.18-8.95L507.18-8.95ZM532.23-5.35L532.23-5.35Q532.23-6.25 532.45-7.6 532.68-8.95 533.38-11.9L533.38-11.9Q534.08-14.75 534.28-16 534.48-17.25 534.48-18.1L534.48-18.1Q534.48-19.35 534.03-20 533.58-20.65 532.68-20.65L532.68-20.65Q531.48-20.65 530.45-19.43 529.43-18.2 528.78-16.05L528.78-16.05 525.38 0 518.18 0 523.48-25 530.68-25 530.13-22.4Q531.38-23.8 532.83-24.5 534.28-25.2 535.98-25.2L535.98-25.2Q538.63-25.2 540.08-23.75 541.53-22.3 541.53-19.55L541.53-19.55Q541.53-18.4 541.25-16.82 540.98-15.25 540.18-12L540.18-12Q539.53-9.45 539.33-8.4 539.13-7.35 539.13-6.65L539.13-6.65Q539.13-5.6 539.63-5.08 540.13-4.55 541.13-4.55L541.13-4.55Q542.38-4.55 543.28-5.4 544.18-6.25 545.33-8.95L545.33-8.95 547.43-8.95Q545.83-4.3 543.55-2 541.28 0.3 538.13 0.3L538.13 0.3Q535.33 0.3 533.78-1.23 532.23-2.75 532.23-5.35ZM546.68-23L547.08-25 548.73-25 550.23-31.9 557.63-32.9 555.93-25 558.93-25 558.53-23 555.53-23 552.33-8Q552.23-7.55 552.18-7.18 552.13-6.8 552.13-6.4L552.13-6.4Q552.13-5.4 552.6-4.98 553.08-4.55 554.18-4.55L554.18-4.55Q555.58-4.55 556.83-5.78 558.08-7 558.68-8.95L558.68-8.95 560.78-8.95Q559.18-4.4 556.48-2.05 553.78 0.3 550.28 0.3L550.28 0.3Q547.78 0.3 546.35-1.28 544.93-2.85 544.93-5.7L544.93-5.7Q544.93-6.35 545.03-7.18 545.13-8 545.33-8.95L545.33-8.95 548.33-23 546.68-23Z" opacity="1" transform="matrix(1,0,0,1,0,0)" fill="#ffffff" class="undefined-text-1" data-fill-palette-color="secondary" id="text-1"></path></svg></g></svg></g></svg></g></svg></g><g></g></svg></g></svg></g></svg></g><g mask="url(#c8bc0a06-5e5c-45f5-8a85-b806bf801de9)"><g transform="matrix(4.02565625526334, 0, 0, 4.02565625526334, 1, 9.723210569028396)"><svg xmlns="http://www.w3.org/2000/svg" xmlns:xlink="http://www.w3.org/1999/xlink" version="1.1" x="0" y="0" viewBox="0.9010009765625 21.267333984375 97.75300598144531 56.57551574707031" enable-background="new 0 0 100 100" xml:space="preserve" height="56.57551574707031" width="97.75300598144531" class="icon-none" data-fill-palette-color="accent" id="none"><path fill-rule="evenodd" clip-rule="evenodd" d="M34.996 49.65c9.678 0.188 19.357 0.487 29.034 0.495 2.796 0.002 5.128 0.464 7.026 2.559 1.201 1.324 2.56 1.667 4.23 0.791 7.31-3.83 15.385-3.177 23.368-3.59-0.739 0.264-1.472 0.542-2.213 0.791-11.654 3.93-23.434 7.421-35.494 9.888-1.078 0.222-1.885 0.749-2.689 1.409-6.082 4.98-12.206 9.908-18.233 14.95-1.335 1.118-2.142 1.298-3.462-0.054-3.03-3.096-3.104-3.016-1.261-7.04 1.54-3.36 3.068-6.729 4.854-10.645-2.901 1.108-5.225 2.024-7.572 2.879-1.522 0.552-2.978 1.614-4.746 0.656-0.598-0.322-1.017 0.23-1.415 0.613-0.799 0.774-1.6 1.544-2.394 2.324-2.739 2.69-2.709 2.671-5.027-0.309-0.51-0.653-0.625-1.147-0.292-1.91 1.27-2.908 2.469-5.846 3.714-8.766 0.149-0.347 0.365-0.753 0.667-0.934 1.113-0.67 2.188-1.459 2.248-2.396 0.122-1.896-0.037-3.811-0.102-5.717-0.002-0.068-0.269-0.202-0.385-0.178-2.754 0.549-2.698-1.845-3.409-3.331-0.925-1.927-1.604-3.978-2.551-5.894-0.597-1.207-0.353-1.961 0.521-2.909 2.101-2.275 2.023-2.303 4.347-0.152 1.696 1.571 2.889 3.367 6.049 3.072 2.473-0.229 5.151 1.765 7.742 2.762 0.654 0.25 1.323 0.46 1.986 0.688 0.506-0.789-0.096-1.284-0.326-1.808-1.257-2.825-2.563-5.63-3.848-8.444-1.903-4.162-1.845-4.106 1.453-7.382 1.131-1.125 1.807-0.991 2.933-0.055 5.851 4.882 11.794 9.657 17.648 14.537 1.448 1.207 2.992 1.918 4.84 2.302 11.583 2.414 23.492 6.192 34.715 9.906 0.353 0.117 1.044 0.376 1.67 0.626-5.158-0.082-11.604-0.038-16.657-1.312-1.302-0.328-2.64-0.718-3.797-1.37-3.472-1.95-6.512-1.796-9.149 1.408-0.689 0.836-1.684 0.756-2.641 0.772-9.765 0.151-19.528 0.31-29.292 0.463-0.697 0.012-1.395 0.002-2.091 0.002C34.998 49.45 34.996 49.549 34.996 49.65z" fill="#bf2051" data-fill-palette-color="accent"></path><path fill-rule="evenodd" clip-rule="evenodd" d="M81.136 50.723c-2.348 0.582-4.686 1.196-7.042 1.732-1.627 0.37-2.02-1.098-3.199-2.206 3.659 0 6.896 0 10.135 0C81.063 50.409 81.101 50.565 81.136 50.723z" fill="#bf2051" data-fill-palette-color="accent"></path><path fill-rule="evenodd" clip-rule="evenodd" d="M81.136 48.587c-2.348-0.582-4.686-1.196-7.042-1.732-1.627-0.371-2.02 1.098-3.199 2.205 3.659 0 6.896 0 10.135 0C81.063 48.902 81.101 48.745 81.136 48.587z" fill="#bf2051" data-fill-palette-color="accent"></path><path fill-rule="evenodd" clip-rule="evenodd" d="M23.105 49.375c-6.808 0.841-13.553 0.229-20.307 0C9.567 49.375 16.336 49.375 23.105 49.375z" fill="#bf2051" data-fill-palette-color="accent"></path><path fill-rule="evenodd" clip-rule="evenodd" d="M22.862 52.027c-4.539 0-9.079 0-13.616 0 0-0.09 0-0.184 0-0.277 4.63 0 9.255 0 13.885 0C23.043 51.844 22.954 51.938 22.862 52.027z" fill="#bf2051" data-fill-palette-color="accent"></path><path fill-rule="evenodd" clip-rule="evenodd" d="M18.572 47.817c-5.892 0-11.783 0-17.671 0 0-0.091 0-0.185 0-0.277 6.008 0 12.011 0 18.02 0C18.805 47.633 18.689 47.727 18.572 47.817z" fill="#bf2051" data-fill-palette-color="accent"></path></svg></g></g></svg></g><defs><mask id="c8bc0a06-5e5c-45f5-8a85-b806bf801de9"><rect width="640" height="400" fill="white"></rect><rect width="348.05760000000004" height="133.94162676138234" fill="black" x="145.97119999999998" y="133.02918661930883" id="transform-me" transform="matrix(1,0,0,1,-122.24000000000001,-76.4)"></rect></mask></defs></svg><rect width="395.52" height="247.2" fill="none" stroke="none" visibility="hidden"></rect></g></svg></g></svg>